<svg width="628" height="150" viewBox="0 0 628 150" fill="none" xmlns="http://www.w3.org/2000/svg">
<path d="M131.748 53.2815L122.681 53.1255C121.308 50.1375 119.673 47.2995 117.783 44.6445L122.187 36.72L113.28 27.8175L105.362 32.217C102.705 30.327 99.8625 28.692 96.8745 27.3195L96.7275 18.2565L84.5655 15L79.9995 22.5975V34.9995C86.9085 34.9995 92.5005 40.5915 92.5005 47.5005C92.5005 54.405 86.9085 60 79.9995 60V70.0005H97.5V79.9995C97.5 82.764 99.7365 85.0005 102.5 85.0005C105.264 85.0005 107.501 82.764 107.501 79.9995V70.0005H127.398L135 65.439L131.748 53.2815Z" fill="#36ADB3"/>
<path d="M127.398 79.998H115C115 86.907 109.408 92.499 102.499 92.499C95.595 92.499 90 86.907 90 79.998H79.9995V97.4985H69.999C67.236 97.4985 65.001 99.7395 65.001 102.498C65.001 105.263 67.236 107.499 69.999 107.499H79.9995V127.392L84.561 134.999L96.7275 131.742L96.8745 122.684C99.8625 121.307 102.705 119.672 105.361 117.782L113.28 122.186L122.191 113.279L117.783 105.36C119.673 102.704 121.308 99.861 122.685 96.873L131.743 96.726L135 84.5595L127.398 79.998Z" fill="#FB374D"/>
<path d="M69.999 89.9985V79.998H52.5V69.999C52.5 67.2345 50.259 64.998 47.499 64.998C44.736 64.998 42.501 67.2345 42.501 69.999V79.998H22.5945L15 84.5595L18.258 96.726L27.3135 96.873C28.6905 99.861 30.3285 102.704 32.2185 105.36L27.8175 113.279L36.7185 122.186L44.64 117.782C47.295 119.672 50.136 121.307 53.124 122.679L53.277 131.736L65.4405 134.999L69.999 127.386V114.999C63.0915 114.999 57.501 109.412 57.501 102.498C57.501 95.5935 63.0915 89.9985 69.999 89.9985Z" fill="#00669F"/>
<path d="M79.9995 42.4995H69.999V22.6065L65.4405 15L53.277 18.2565L53.124 27.3195C50.136 28.692 47.2995 30.327 44.643 32.217L36.7185 27.8175L27.8175 36.72L32.2185 44.6445C30.3285 47.301 28.6905 50.1375 27.3195 53.1255L18.258 53.2815L15 65.439L22.5945 70.0005H35.001C35.001 63.0915 40.5855 57.4995 47.499 57.4995C54.405 57.4995 60 63.0915 60 70.0005H69.999V52.5H79.9995C82.764 52.5 85.0005 50.2635 85.0005 47.5005C85.0005 44.736 82.764 42.4995 79.9995 42.4995Z" fill="#FF9900"/>
<path d="M166 24.9093H183.393V90.2743H221.946V105.099H166V24.9093Z" fill="#F4F9FF"/>
<path d="M243.967 76.1231C243.967 78.4442 244.189 80.7279 244.632 82.9741C245.075 85.1454 245.814 87.1296 246.848 88.9266C247.956 90.6487 249.396 92.0338 251.168 93.0821C252.941 94.1303 255.157 94.6544 257.815 94.6544C260.474 94.6544 262.69 94.1303 264.463 93.0821C266.309 92.0338 267.749 90.6487 268.783 88.9266C269.891 87.1296 270.666 85.1454 271.11 82.9741C271.553 80.7279 271.774 78.4442 271.774 76.1231C271.774 73.802 271.553 71.5184 271.11 69.2721C270.666 67.0259 269.891 65.0418 268.783 63.3197C267.749 61.5975 266.309 60.2124 264.463 59.1641C262.69 58.041 260.474 57.4795 257.815 57.4795C255.157 57.4795 252.941 58.041 251.168 59.1641C249.396 60.2124 247.956 61.5975 246.848 63.3197C245.814 65.0418 245.075 67.0259 244.632 69.2721C244.189 71.5184 243.967 73.802 243.967 76.1231ZM228.236 76.1231C228.236 71.4809 228.938 67.288 230.341 63.5443C231.744 59.7257 233.738 56.5061 236.323 53.8855C238.908 51.1901 242.01 49.131 245.629 47.7084C249.248 46.2109 253.31 45.4622 257.815 45.4622C262.321 45.4622 266.383 46.2109 270.002 47.7084C273.695 49.131 276.833 51.1901 279.418 53.8855C282.003 56.5061 283.998 59.7257 285.401 63.5443C286.804 67.288 287.506 71.4809 287.506 76.1231C287.506 80.7653 286.804 84.9582 285.401 88.7019C283.998 92.4456 282.003 95.6652 279.418 98.3607C276.833 100.981 273.695 103.003 270.002 104.425C266.383 105.848 262.321 106.559 257.815 106.559C253.31 106.559 249.248 105.848 245.629 104.425C242.01 103.003 238.908 100.981 236.323 98.3607C233.738 95.6652 231.744 92.4456 230.341 88.7019C228.938 84.9582 228.236 80.7653 228.236 76.1231Z" fill="#F4F9FF"/>
<path d="M324.433 91.3974C326.649 91.3974 328.606 90.9482 330.305 90.0497C332.004 89.1512 333.407 87.9532 334.515 86.4557C335.623 84.9582 336.435 83.2736 336.952 81.4017C337.543 79.455 337.838 77.4334 337.838 75.3369C337.838 72.941 337.617 70.6947 337.174 68.5983C336.731 66.4269 335.992 64.5176 334.958 62.8704C333.924 61.2232 332.558 59.9129 330.859 58.9395C329.16 57.9662 327.018 57.4795 324.433 57.4795C322.218 57.4795 320.297 57.9287 318.673 58.8272C317.122 59.7257 315.792 60.9611 314.684 62.5335C313.65 64.031 312.875 65.7905 312.358 67.8121C311.915 69.7588 311.693 71.8178 311.693 73.9892C311.693 76.0857 311.878 78.1821 312.247 80.2786C312.69 82.3002 313.392 84.1346 314.352 85.7819C315.386 87.4291 316.715 88.7768 318.34 89.8251C319.965 90.8733 321.996 91.3974 324.433 91.3974ZM352.794 101.393C352.794 103.714 352.462 106.372 351.797 109.367C351.206 112.362 349.877 115.132 347.809 117.678C345.741 120.299 342.75 122.508 338.835 124.305C334.921 126.102 329.677 127 323.104 127C320.297 127 317.417 126.626 314.463 125.877C311.582 125.203 308.924 124.117 306.486 122.62C304.123 121.122 302.129 119.176 300.504 116.78C298.953 114.459 298.067 111.651 297.845 108.356H313.466C314.204 111.351 315.645 113.41 317.786 114.533C319.928 115.731 322.402 116.33 325.209 116.33C329.64 116.33 332.853 114.983 334.847 112.287C336.915 109.592 337.912 106.185 337.838 102.067V94.4298H337.617C335.918 97.4996 333.481 99.7833 330.305 101.281C327.203 102.703 323.916 103.415 320.445 103.415C316.161 103.415 312.469 102.666 309.367 101.168C306.265 99.5961 303.717 97.4996 301.723 94.8791C299.728 92.1836 298.251 89.0763 297.291 85.5572C296.405 81.9633 295.962 78.1821 295.962 74.2138C295.962 70.4701 296.479 66.8762 297.513 63.432C298.621 59.9129 300.208 56.843 302.276 54.2225C304.344 51.527 306.893 49.3931 309.921 47.8207C313.023 46.2484 316.568 45.4622 320.556 45.4622C324.323 45.4622 327.609 46.1735 330.416 47.5961C333.296 49.0187 335.697 51.4147 337.617 54.784H337.838V47.0346H352.794V101.393Z" fill="#F4F9FF"/>
<path d="M381.635 38.0497H365.903V24.9093H381.635V38.0497ZM365.903 47.0346H381.635V105.099H365.903V47.0346Z" fill="#F4F9FF"/>
<path d="M455.84 95.1037C452.738 99.2966 448.897 102.329 444.318 104.201C439.739 105.998 435.123 106.896 430.47 106.896C424.561 106.896 419.281 105.811 414.628 103.639C409.975 101.393 406.023 98.3981 402.774 94.6544C399.524 90.9107 397.05 86.6055 395.351 81.7387C393.653 76.8718 392.803 71.8179 392.803 66.5767C392.803 60.7365 393.579 55.1958 395.13 49.9546C396.754 44.6386 399.118 39.9964 402.22 36.0281C405.396 32.0598 409.31 28.915 413.963 26.5939C418.69 24.198 424.192 23 430.47 23C434.754 23 438.779 23.5241 442.546 24.5724C446.386 25.5457 449.783 27.1181 452.738 29.2894C455.766 31.4608 458.277 34.2311 460.271 37.6004C462.339 40.8949 463.742 44.9006 464.481 49.6177H453.956C453.439 46.5479 452.479 43.9273 451.076 41.7559C449.673 39.5097 447.937 37.6753 445.869 36.2527C443.801 34.8301 441.438 33.7819 438.779 33.108C436.194 32.3592 433.424 31.9849 430.47 31.9849C425.669 31.9849 421.533 32.9582 418.062 34.905C414.665 36.8517 411.858 39.4348 409.642 42.6544C407.501 45.7991 405.913 49.4305 404.879 53.5486C403.845 57.5918 403.328 61.7473 403.328 66.0151C403.328 70.2081 403.919 74.2513 405.1 78.1447C406.282 81.9633 408.018 85.37 410.307 88.365C412.597 91.2851 415.403 93.6436 418.727 95.4406C422.124 97.1627 426.039 98.0238 430.47 98.0238C434.606 98.0238 438.262 97.3499 441.438 96.0022C444.613 94.6544 447.272 92.82 449.414 90.4989C451.63 88.103 453.292 85.3326 454.399 82.1879C455.507 78.9683 455.987 75.5241 455.84 71.8553H430.581V62.8704H465.256V105.099H458.609L455.84 95.1037Z" fill="#F4F9FF"/>
<path d="M518.964 70.5076C518.816 68.2613 518.299 66.1274 517.413 64.1058C516.6 62.0842 515.455 60.3621 513.978 58.9395C512.575 57.442 510.876 56.2815 508.882 55.4579C506.962 54.5594 504.82 54.1101 502.457 54.1101C500.019 54.1101 497.804 54.5594 495.81 55.4579C493.889 56.2815 492.228 57.442 490.824 58.9395C489.421 60.437 488.313 62.1965 487.501 64.2181C486.688 66.1649 486.208 68.2613 486.061 70.5076H518.964ZM528.048 86.6803C526.792 93.1944 524.023 98.0986 519.739 101.393C515.455 104.688 510.064 106.335 503.565 106.335C498.985 106.335 494.997 105.586 491.6 104.089C488.276 102.591 485.47 100.495 483.18 97.7991C480.891 95.1037 479.155 91.8841 477.973 88.1404C476.865 84.3967 476.238 80.3161 476.09 75.8985C476.09 71.4809 476.755 67.4377 478.084 63.7689C479.413 60.1001 481.26 56.9179 483.623 54.2225C486.06 51.527 488.904 49.4305 492.154 47.933C495.477 46.4356 499.096 45.6868 503.011 45.6868C508.107 45.6868 512.316 46.7725 515.64 48.9438C519.037 51.0403 521.733 53.7358 523.727 57.0302C525.795 60.3247 527.199 63.9186 527.937 67.8121C528.75 71.7055 529.082 75.4118 528.934 78.9309H486.061C485.987 81.4766 486.282 83.91 486.947 86.2311C487.612 88.4773 488.682 90.4989 490.16 92.2959C491.637 94.018 493.52 95.4032 495.81 96.4514C498.099 97.4996 500.795 98.0238 503.897 98.0238C507.885 98.0238 511.135 97.0878 513.646 95.216C516.231 93.3441 517.93 90.4989 518.742 86.6803H528.048Z" fill="#F4F9FF"/>
<path d="M589.435 104.875C587.81 105.848 585.557 106.335 582.677 106.335C580.24 106.335 578.282 105.661 576.805 104.313C575.402 102.891 574.7 100.607 574.7 97.4622C572.115 100.607 569.087 102.891 565.616 104.313C562.219 105.661 558.526 106.335 554.538 106.335C551.953 106.335 549.478 106.035 547.115 105.436C544.825 104.837 542.831 103.901 541.133 102.629C539.434 101.356 538.068 99.7084 537.034 97.6868C536.073 95.5903 535.593 93.0821 535.593 90.162C535.593 86.8675 536.147 84.1721 537.255 82.0756C538.363 79.9791 539.803 78.2945 541.576 77.0216C543.422 75.6739 545.49 74.6631 547.78 73.9892C550.143 73.3153 552.543 72.7538 554.981 72.3045C557.566 71.7804 560.003 71.406 562.293 71.1814C564.656 70.8819 566.724 70.5076 568.496 70.0583C570.269 69.5342 571.672 68.8229 572.706 67.9244C573.74 66.951 574.257 65.5659 574.257 63.7689C574.257 61.6724 573.851 59.9878 573.039 58.7149C572.3 57.442 571.303 56.4687 570.047 55.7948C568.866 55.1209 567.499 54.6717 565.948 54.4471C564.471 54.2225 562.994 54.1101 561.517 54.1101C557.529 54.1101 554.205 54.8963 551.546 56.4687C548.888 57.9662 547.447 60.8488 547.226 65.1166H537.809C537.957 61.5227 538.695 58.4903 540.025 56.0194C541.354 53.5486 543.127 51.5644 545.342 50.067C547.558 48.4946 550.069 47.3715 552.876 46.6976C555.756 46.0238 558.821 45.6868 562.071 45.6868C564.656 45.6868 567.204 45.874 569.715 46.2484C572.3 46.6227 574.627 47.4089 576.695 48.6069C578.763 49.73 580.424 51.3398 581.68 53.4363C582.935 55.5328 583.563 58.2657 583.563 61.635V91.5097C583.563 93.7559 583.674 95.4032 583.896 96.4514C584.191 97.4996 585.077 98.0238 586.554 98.0238C587.367 98.0238 588.327 97.8366 589.435 97.4622V104.875ZM574.146 75.1123C572.965 76.0108 571.414 76.6847 569.494 77.1339C567.573 77.5083 565.542 77.8452 563.4 78.1447C561.332 78.3693 559.227 78.6688 557.086 79.0432C554.944 79.3427 553.024 79.8668 551.325 80.6156C549.626 81.3643 548.223 82.45 547.115 83.8726C546.081 85.2203 545.564 87.0921 545.564 89.4881C545.564 91.0605 545.859 92.4082 546.45 93.5313C547.115 94.5796 547.927 95.4406 548.888 96.1145C549.922 96.7883 551.103 97.275 552.433 97.5745C553.762 97.874 555.165 98.0238 556.643 98.0238C559.744 98.0238 562.403 97.612 564.619 96.7883C566.835 95.8899 568.644 94.8042 570.047 93.5313C571.451 92.1836 572.485 90.761 573.149 89.2635C573.814 87.6911 574.146 86.2311 574.146 84.8834V75.1123Z" fill="#F4F9FF"/>
<path d="M597.867 47.0346H606.729V59.2765H606.951C609.24 54.5594 612.047 51.0778 615.371 48.8315C618.694 46.5853 622.904 45.5371 628 45.6868V55.7948C624.233 55.7948 621.021 56.3189 618.362 57.3672C615.703 58.4154 613.561 59.9503 611.936 61.9719C610.311 63.9935 609.13 66.4644 608.391 69.3844C607.653 72.2297 607.283 75.5241 607.283 79.2678V105.099H597.867V47.0346Z" fill="#F4F9FF"/>
</svg>
